<svg xmlns="http://www.w3.org/2000/svg" width="920" height="540" viewBox="0 0 920 540">
<style>text{font-family:system-ui,sans-serif;font-size:13px}.title{font-size:18px;font-weight:600}.axis{stroke:currentColor}.grid{stroke:currentColor;stroke-opacity:.15}.line{fill:none;stroke:currentColor;stroke-width:2}.dash{fill:none;stroke:currentColor;stroke-width:1.6;stroke-dasharray:7 5}.dot{fill:currentColor}.open{fill:none;stroke:currentColor;stroke-width:2}</style>
<text class="title" x="460.0" y="28" text-anchor="middle">One normalized-u spectrum transferred from 10^7 to 10^12</text>
<line class="axis" x1="90" y1="55" x2="90" y2="465"/><line class="axis" x1="90" y1="84.3" x2="890" y2="84.3"/>
<line class="grid" x1="90" y1="435.7" x2="890" y2="435.7"/><text x="82" y="439.7" text-anchor="end">-0.06</text>
<line class="grid" x1="90" y1="377.1" x2="890" y2="377.1"/><text x="82" y="381.1" text-anchor="end">-0.05</text>
<line class="grid" x1="90" y1="318.6" x2="890" y2="318.6"/><text x="82" y="322.6" text-anchor="end">-0.04</text>
<line class="grid" x1="90" y1="260.0" x2="890" y2="260.0"/><text x="82" y="264.0" text-anchor="end">-0.03</text>
<line class="grid" x1="90" y1="201.4" x2="890" y2="201.4"/><text x="82" y="205.4" text-anchor="end">-0.02</text>
<line class="grid" x1="90" y1="142.9" x2="890" y2="142.9"/><text x="82" y="146.9" text-anchor="end">-0.01</text>
<line class="grid" x1="90" y1="84.3" x2="890" y2="84.3"/><text x="82" y="88.3" text-anchor="end">0.00</text>
<polyline class="line" points="90.0,423.6 132.1,221.5 174.2,171.6 216.3,145.5 258.4,134.5 300.5,125.2 342.6,119.3 384.7,114.6 426.8,111.3 468.9,108.4 511.1,106.2 553.2,104.4 595.3,103.2 637.4,101.3 679.5,99.9 721.6,99.2 763.7,98.4 805.8,97.2 847.9,96.9 890.0,96.1" opacity="0.55"/><polyline class="dash" points="90.0,432.3 132.1,225.7 174.2,173.4 216.3,150.1 258.4,135.2 300.5,125.5 342.6,120.2 384.7,116.7 426.8,112.5 468.9,109.3 511.1,106.4 553.2,105.6 595.3,103.7 637.4,101.9 679.5,100.9 721.6,100.6 763.7,99.3 805.8,97.7 847.9,96.7 890.0,96.8" opacity="0.55"/><text x="105" y="73">X2e+12_off-128: solid target, dashed transfer</text>
<polyline class="line" points="90.0,428.9 132.1,226.3 174.2,171.6 216.3,147.0 258.4,134.9 300.5,125.5 342.6,119.7 384.7,115.1 426.8,111.2 468.9,108.1 511.1,106.4 553.2,104.3 595.3,102.3 637.4,101.6 679.5,100.7 721.6,99.2 763.7,98.8 805.8,98.1 847.9,96.8 890.0,97.1" opacity="0.70"/><polyline class="dash" points="90.0,438.0 132.1,228.0 174.2,174.8 216.3,151.1 258.4,136.1 300.5,126.2 342.6,120.7 384.7,117.3 426.8,113.0 468.9,109.7 511.1,106.8 553.2,106.0 595.3,104.0 637.4,102.2 679.5,101.1 721.6,100.9 763.7,99.5 805.8,97.9 847.9,96.9 890.0,97.0" opacity="0.70"/><text x="105" y="91">X2e+12_off+0: solid target, dashed transfer</text>
<polyline class="line" points="90.0,429.3 132.1,223.3 174.2,171.3 216.3,147.6 258.4,135.3 300.5,125.8 342.6,119.7 384.7,115.6 426.8,110.7 468.9,108.3 511.1,105.9 553.2,104.3 595.3,102.9 637.4,101.0 679.5,100.3 721.6,98.8 763.7,98.2 805.8,97.5 847.9,96.4 890.0,96.1" opacity="0.85"/><polyline class="dash" points="90.0,438.0 132.1,228.0 174.2,174.8 216.3,151.1 258.4,136.1 300.5,126.2 342.6,120.7 384.7,117.3 426.8,113.0 468.9,109.7 511.1,106.7 553.2,106.0 595.3,104.0 637.4,102.2 679.5,101.1 721.6,100.9 763.7,99.5 805.8,97.9 847.9,96.9 890.0,97.0" opacity="0.85"/><text x="105" y="109">X2e+12_off+128: solid target, dashed transfer</text>
<text x="90.0" y="487" text-anchor="middle">1</text><text x="132.1" y="487" text-anchor="middle">2</text><text x="258.4" y="487" text-anchor="middle">5</text><text x="468.9" y="487" text-anchor="middle">10</text><text x="679.5" y="487" text-anchor="middle">15</text><text x="890.0" y="487" text-anchor="middle">20</text>
<text x="460.0" y="522" text-anchor="middle">lag k in normalized interval units</text><text transform="translate(20 270.0) rotate(-90)" text-anchor="middle">rho(k)</text>
</svg>